<?xml version="1.0" standalone="no"?>
<!DOCTYPE svg PUBLIC "-//W3C//DTD SVG 20010904//EN"
 "http://www.w3.org/TR/2001/REC-SVG-20010904/DTD/svg10.dtd">
<svg version="1.0" xmlns="http://www.w3.org/2000/svg"
 width="697.000000pt" height="697.000000pt" viewBox="0 0 697.000000 697.000000"
 preserveAspectRatio="xMidYMid meet">

<g transform="translate(0.000000,697.000000) scale(0.100000,-0.100000)"
fill="#000000" stroke="none">
<path d="M2698 6528 l-648 -430 3 -1007 2 -1006 1295 0 1295 0 3 1006 2 1006
-157 104 c-149 98 -747 492 -1008 665 -66 43 -124 82 -130 86 -5 3 -301 -187
-657 -424z m961 46 c62 -40 98 -71 94 -78 -4 -6 -26 -37 -50 -68 -172 -226
-281 -482 -343 -808 -17 -91 -42 -223 -56 -294 -67 -350 -239 -503 -685 -610
-142 -35 -397 -77 -411 -69 -5 2 -8 40 -8 83 0 91 -13 80 120 100 168 25 351
96 476 185 164 117 274 308 274 475 0 147 -93 190 -346 161 -197 -22 -341 -31
-431 -24 l-93 6 0 193 0 194 25 16 c14 9 27 15 29 13 1 -2 16 -24 33 -49 39
-57 125 -139 183 -173 55 -32 148 -57 212 -57 256 0 501 220 578 519 28 111
57 165 122 228 79 76 151 133 165 128 7 -2 57 -34 112 -71z m-595 -57 c21 -21
25 -22 45 -9 19 13 21 13 21 -3 0 -9 -9 -19 -20 -22 -14 -4 -20 -14 -20 -32 0
-62 -71 -100 -123 -67 -23 16 -25 15 -40 -8 -15 -22 -15 -25 3 -41 11 -10 20
-24 20 -32 0 -7 8 -13 17 -13 13 0 14 -3 5 -12 -7 -7 -12 -24 -12 -39 0 -25 4
-28 38 -31 31 -3 34 -5 17 -12 -46 -20 -56 -37 -49 -87 6 -47 5 -49 -35 -88
-65 -62 -142 -95 -232 -99 -92 -5 -144 14 -215 80 -46 42 -104 114 -104 128 0
4 89 67 199 139 132 88 204 129 215 125 11 -4 15 -2 11 7 -3 9 15 27 50 49 30
19 58 35 63 35 4 0 21 12 37 28 37 34 78 35 109 4z m66 -97 c0 -5 -2 -10 -4
-10 -3 0 -8 5 -11 10 -3 6 -1 10 4 10 6 0 11 -4 11 -10z m768 -72 c-3 -7 -13
-15 -24 -17 -16 -3 -17 -1 -5 13 16 19 34 21 29 4z m-883 -38 c-3 -5 -11 -10
-16 -10 -6 0 -7 5 -4 10 3 6 11 10 16 10 6 0 7 -4 4 -10z m745 -105 c0 -8 -9
-19 -20 -25 -23 -12 -25 -8 -8 20 15 24 28 26 28 5z m492 -21 l57 -35 -25 -57
c-102 -226 -138 -316 -151 -377 -43 -205 48 -323 300 -390 l67 -18 0 -163 c0
-90 -2 -164 -4 -164 -22 0 -186 60 -246 90 -204 103 -315 241 -342 428 -23
154 30 350 142 538 51 83 126 184 139 184 3 0 32 -16 63 -36z m-401 -36 c4
-42 -14 -62 -43 -47 -18 10 -24 39 -11 52 11 12 53 8 54 -5z m-83 -27 c9 -5
11 -17 6 -34 -5 -24 -3 -27 17 -27 13 1 40 14 59 30 19 17 42 30 52 30 17 0
17 -2 4 -29 -15 -28 -46 -49 -46 -31 0 6 -7 10 -16 10 -12 0 -15 -6 -11 -22 4
-14 0 -29 -11 -41 -16 -18 -16 -20 3 -34 19 -15 19 -15 -5 -8 -14 4 -32 14
-41 21 -8 8 -22 14 -29 14 -11 0 -11 3 -2 12 14 14 16 38 3 38 -5 0 -17 -8
-27 -17 -16 -16 -18 -15 -40 12 -23 29 -23 30 -4 33 11 2 28 14 36 28 17 25
30 29 52 15z m682 -76 c10 -12 10 -15 -4 -15 -9 0 -16 7 -16 15 0 8 2 15 4 15
2 0 9 -7 16 -15z m40 -242 c0 -184 -1 -198 -20 -218 -22 -24 -17 -60 6 -51 19
7 19 -38 0 -53 -19 -16 -121 24 -161 65 -41 41 -51 74 -24 81 23 6 25 21 4 29
-28 11 -18 47 67 242 38 84 43 92 69 92 15 0 31 5 34 10 19 30 25 -19 25 -197z
m-1577 -352 c0 -35 -6 -59 -15 -65 -8 -6 -13 -16 -11 -23 12 -35 -99 -176
-183 -232 -68 -46 -181 -98 -266 -121 -105 -29 -227 -49 -234 -39 -6 10 -4
190 4 271 4 51 8 58 37 74 31 17 35 17 59 1 26 -17 26 -17 24 8 -2 15 -8 31
-15 37 -11 8 -12 7 -6 -8 6 -15 2 -15 -27 6 -24 17 -32 20 -28 8 7 -16 -24
-58 -42 -58 -11 0 -13 111 -4 147 6 21 10 22 168 23 88 0 206 7 261 14 55 8
141 13 190 12 l90 -1 -2 -54z m597 4 c0 -8 -7 -15 -15 -15 -8 0 -15 7 -15 15
0 8 7 15 15 15 8 0 15 -7 15 -15z m0 -50 c0 -8 -4 -15 -10 -15 -5 0 -7 7 -4
15 4 8 8 15 10 15 2 0 4 -7 4 -15z m40 -20 c0 -8 -6 -15 -14 -15 -8 0 -23 -3
-33 -7 -17 -6 -17 -5 1 15 22 25 46 29 46 7z m-5 -35 c3 -5 1 -10 -4 -10 -6 0
-11 5 -11 10 0 6 2 10 4 10 3 0 8 -4 11 -10z m283 -94 c8 -19 8 -25 -3 -29
-18 -7 -25 1 -25 30 0 30 14 30 28 -1z m-50 -95 c8 27 35 49 59 49 12 0 23 -4
23 -8 0 -4 30 -40 66 -80 61 -67 230 -192 260 -192 17 0 128 -52 132 -62 2 -4
8 -6 13 -2 5 3 24 1 42 -5 17 -5 51 -15 75 -21 l42 -11 0 -54 c0 -30 -3 -55
-7 -55 -5 1 -48 7 -97 14 -77 12 -92 18 -109 40 -10 14 -27 26 -38 26 -11 0
-28 5 -39 12 -16 10 -24 9 -50 -10 -17 -13 -35 -20 -40 -17 -16 10 -11 40 11
63 11 12 18 26 15 30 -2 4 -1 14 4 22 9 15 -9 50 -27 50 -6 0 -13 5 -15 12 -8
22 -28 -3 -28 -33 0 -55 -41 -94 -56 -54 -4 8 -11 15 -17 15 -18 0 -46 -31
-40 -46 7 -18 -16 -74 -29 -74 -6 0 -8 14 -4 35 6 32 5 35 -16 36 -13 0 -32 2
-44 3 -11 1 -26 -4 -34 -12 -11 -12 -10 -13 8 -8 18 6 22 2 28 -29 7 -39 0
-55 -17 -38 -8 8 -18 7 -37 -3 -25 -13 -27 -12 -34 9 l-6 22 -1 -22 c-1 -34
-26 -28 -36 10 -8 26 -16 33 -42 35 -17 2 -37 10 -43 17 -8 10 -17 12 -29 5
-20 -10 -35 -2 -44 23 -3 9 -13 17 -21 17 -10 0 -18 14 -22 38 -7 39 -20 62
-35 62 -5 0 -7 -11 -3 -25 4 -15 2 -25 -5 -25 -6 0 -11 -7 -11 -15 0 -8 6 -14
13 -12 8 1 13 -12 15 -38 l2 -40 -19 23 c-17 19 -26 22 -56 16 -20 -3 -35 -12
-35 -20 0 -8 -5 -14 -10 -14 -6 0 -14 -8 -17 -17 -9 -24 -38 -50 -50 -46 -6 2
-14 -5 -18 -16 -8 -26 -20 -26 -45 -1 -20 20 -27 74 -12 96 4 7 21 20 38 30
17 11 50 32 73 47 32 21 46 26 56 17 10 -8 15 -8 20 0 5 8 10 8 20 0 16 -13
28 1 19 24 -4 10 2 24 16 36 25 21 50 26 50 10 0 -5 7 -10 15 -10 10 0 15 10
15 27 l0 27 28 -27 c34 -32 91 -52 107 -36 7 7 6 12 -3 18 -8 5 -10 18 -6 39
6 27 11 31 43 34 l36 3 -33 18 c-28 15 -31 21 -21 33 9 11 9 18 1 26 -7 7 -12
23 -12 36 0 23 1 23 32 -9 23 -22 33 -28 36 -18z m-558 -390 c7 -15 6 -23 -5
-35 -11 -11 -12 -16 -2 -20 25 -10 -26 -37 -65 -33 -21 2 -38 1 -38 -3 0 -14
27 -30 41 -25 10 3 19 -10 30 -42 13 -41 19 -48 40 -46 22 1 25 -3 26 -39 2
-34 -3 -44 -35 -71 -20 -17 -76 -69 -123 -114 -47 -46 -92 -83 -99 -83 -11 0
-11 3 -2 12 21 21 13 30 -18 23 -21 -5 -32 -2 -35 7 -6 15 -95 12 -95 -4 0 -5
-8 -7 -18 -4 -13 4 -21 -2 -29 -24 l-11 -30 -291 0 -291 0 0 124 c0 141 -9
129 105 141 182 18 526 98 632 146 23 10 49 19 57 19 22 0 103 37 113 52 12
19 76 67 90 68 7 0 17 -9 23 -19z m800 -1 c0 -5 -4 -10 -10 -10 -5 0 -10 5
-10 10 0 6 5 10 10 10 6 0 10 -4 10 -10z m150 0 c0 -5 -4 -10 -9 -10 -6 0 -13
5 -16 10 -3 6 1 10 9 10 9 0 16 -4 16 -10z m223 -185 l107 -18 0 -54 c0 -47
-2 -54 -17 -49 -128 39 -277 60 -363 51 -153 -16 -259 -72 -387 -204 l-78 -81
-227 0 c-141 0 -228 4 -228 10 0 12 139 132 210 179 128 88 255 142 410 176
90 20 426 14 573 -10z m-228 -252 c-3 -16 -16 -43 -28 -60 l-22 -33 -119 0
-119 0 39 31 c73 58 142 87 213 88 42 1 43 0 36 -26z"/>
<path d="M4402 5903 c-17 -7 -5 -23 18 -23 10 0 28 -12 39 -27 15 -21 20 -24
21 -11 0 17 -44 69 -58 67 -4 0 -13 -3 -20 -6z"/>
<path d="M4391 5801 c-7 -5 -10 -14 -6 -20 5 -9 10 -9 21 0 26 22 14 38 -15
20z"/>
<path d="M4295 5700 c-3 -6 1 -13 10 -16 19 -8 30 0 20 15 -8 14 -22 14 -30 1z"/>
<path d="M2350 5360 c0 -32 1 -33 14 -14 8 10 11 21 8 24 -4 3 -10 9 -14 14
-5 5 -8 -6 -8 -24z"/>
<path d="M2350 5310 c0 -5 5 -10 11 -10 5 0 7 5 4 10 -3 6 -8 10 -11 10 -2 0
-4 -4 -4 -10z"/>
<path d="M2290 5279 c0 -7 -3 -9 -7 -6 -8 9 -32 -23 -32 -43 0 -12 2 -12 13 3
7 9 25 17 40 17 21 0 27 4 24 17 -4 20 -38 31 -38 12z"/>
<path d="M3805 5066 c17 -7 32 -11 35 -9 8 7 -24 23 -45 22 -15 0 -13 -3 10
-13z"/>
<path d="M3890 5070 c0 -12 49 -45 56 -37 3 3 1 15 -6 26 -11 21 -50 30 -50
11z"/>
<path d="M3780 4996 c0 -2 9 -6 20 -9 11 -3 18 -1 14 4 -5 9 -34 13 -34 5z"/>
<path d="M3890 4904 c0 -9 5 -14 12 -12 18 6 21 28 4 28 -9 0 -16 -7 -16 -16z"/>
<path d="M4166 4903 c-6 -14 -5 -15 5 -6 7 7 10 15 7 18 -3 3 -9 -2 -12 -12z"/>
<path d="M3387 4903 c-12 -11 -8 -23 8 -23 8 0 15 7 15 15 0 16 -12 20 -23 8z"/>
<path d="M3855 4900 c-3 -5 1 -10 10 -10 9 0 13 5 10 10 -3 6 -8 10 -10 10 -2
0 -7 -4 -10 -10z"/>
<path d="M3744 4886 c-12 -31 0 -51 33 -52 18 -1 30 3 27 8 -3 4 -11 8 -18 8
-7 0 -12 10 -12 21 1 26 -21 37 -30 15z"/>
<path d="M3265 4813 c10 -42 22 -47 17 -8 -2 19 -9 35 -14 35 -6 0 -7 -11 -3
-27z"/>
<path d="M3301 4810 c-9 -5 -5 -9 10 -13 28 -7 31 -6 14 10 -6 6 -18 8 -24 3z"/>
<path d="M3096 4599 c-30 -24 -36 -52 -8 -42 9 4 25 16 34 28 33 39 17 48 -26
14z"/>
<path d="M2920 4550 c0 -13 7 -20 18 -20 26 0 34 11 21 27 -17 20 -39 16 -39
-7z"/>
<path d="M2750 4536 c0 -19 13 -27 28 -17 8 4 5 11 -8 19 -16 10 -20 10 -20
-2z"/>
<path d="M3108 4533 c7 -3 16 -2 19 1 4 3 -2 6 -13 5 -11 0 -14 -3 -6 -6z"/>
<path d="M2800 4516 c0 -2 8 -10 18 -17 15 -13 16 -12 3 4 -13 16 -21 21 -21
13z"/>
<path d="M2940 4480 c0 -5 5 -10 10 -10 6 0 10 5 10 10 0 6 -4 10 -10 10 -5 0
-10 -4 -10 -10z"/>
<path d="M2680 4470 c-8 -5 -12 -12 -9 -15 8 -8 39 5 39 16 0 11 -11 11 -30
-1z"/>
<path d="M2982 4471 c2 -7 7 -12 11 -12 12 1 9 15 -3 20 -7 2 -11 -2 -8 -8z"/>
<path d="M2640 4460 c0 -5 5 -10 11 -10 5 0 7 5 4 10 -3 6 -8 10 -11 10 -2 0
-4 -4 -4 -10z"/>
<path d="M2740 4466 c0 -2 9 -6 20 -9 11 -3 18 -1 14 4 -5 9 -34 13 -34 5z"/>
<path d="M2958 4343 c7 -3 16 -2 19 1 4 3 -2 6 -13 5 -11 0 -14 -3 -6 -6z"/>
<path d="M2545 4270 c3 -5 10 -10 16 -10 5 0 9 5 9 10 0 6 -7 10 -16 10 -8 0
-12 -4 -9 -10z"/>
<path d="M3470 3790 c-274 -27 -427 -222 -381 -485 34 -195 130 -275 403 -334
76 -17 147 -35 158 -41 31 -17 37 -58 11 -83 -18 -19 -33 -22 -99 -22 -99 0
-136 16 -168 71 l-26 44 -169 0 -169 0 6 -42 c18 -130 71 -239 149 -307 180
-157 587 -143 751 26 71 73 97 138 102 255 3 78 0 110 -16 165 -52 168 -153
239 -405 284 -146 26 -167 38 -167 92 0 38 54 61 127 54 65 -7 95 -27 118 -77
l18 -40 174 0 173 0 0 34 c0 45 -32 145 -63 198 -31 53 -111 129 -163 156 -92
47 -224 65 -364 52z"/>
<path d="M1180 3141 l0 -631 180 0 181 0 -1 193 -2 192 28 0 c27 0 31 -7 104
-192 l75 -192 208 -1 c114 0 207 2 207 4 0 2 -24 55 -53 117 -30 63 -75 163
-102 222 l-48 108 36 37 c44 45 81 119 96 190 14 68 14 206 0 274 -27 128
-113 234 -224 279 -58 22 -71 23 -372 27 l-313 4 0 -631z m530 249 c30 -30 28
-103 -5 -135 -21 -22 -33 -25 -95 -25 -40 0 -70 4 -70 10 -1 6 -1 44 -1 85 0
41 0 77 1 80 0 3 34 5 75 5 62 0 79 -4 95 -20z"/>
<path d="M2187 3763 c-4 -3 -7 -287 -7 -630 l0 -623 410 0 410 0 0 175 0 175
-227 2 -228 3 0 50 0 50 228 3 227 2 0 175 0 175 -230 0 -230 0 0 45 0 45 233
2 232 3 3 178 2 177 -408 0 c-225 0 -412 -3 -415 -7z"/>
<path d="M4090 3140 l0 -630 180 0 180 0 -2 628 -3 627 -177 3 -178 2 0 -630z"/>
<path d="M4560 3140 l0 -630 165 0 165 0 0 255 c0 140 3 255 8 255 4 0 32 -46
63 -103 31 -56 93 -171 140 -254 l83 -153 168 0 168 0 0 630 0 630 -165 0
-165 0 0 -245 c0 -135 -3 -245 -7 -245 -5 0 -67 109 -140 243 l-131 242 -176
3 -176 2 0 -630z"/>
<path d="M4822 2409 c-130 -25 -256 -121 -309 -234 -26 -56 -28 -69 -28 -185
0 -107 4 -133 23 -182 55 -136 163 -206 396 -258 188 -41 216 -57 202 -113 -8
-35 -59 -50 -151 -45 -86 4 -117 22 -153 86 l-23 42 -174 0 c-96 0 -176 -3
-178 -7 -11 -20 25 -163 57 -229 90 -180 257 -262 516 -251 196 8 335 68 419
180 55 74 73 133 73 247 -1 159 -33 252 -115 327 -75 70 -148 98 -335 133
-133 25 -156 34 -172 68 -26 58 49 98 156 82 51 -8 78 -29 105 -82 l19 -38
185 0 c213 0 197 -11 165 115 -45 176 -162 295 -335 340 -65 16 -268 19 -343
4z"/>
<path d="M1180 1730 l0 -670 190 0 190 0 0 245 0 245 120 0 120 0 0 -245 0
-245 190 0 190 0 0 670 0 670 -187 -2 -188 -3 -3 -232 -2 -233 -120 0 -120 0
-2 233 -3 232 -187 3 -188 2 0 -670z"/>
<path d="M2586 2288 c-19 -62 -64 -207 -100 -323 -36 -115 -104 -336 -151
-490 -81 -259 -125 -406 -125 -413 0 -1 77 -1 171 0 l172 3 27 100 c15 55 64
210 108 345 45 135 89 271 98 303 9 32 18 57 20 55 2 -3 21 -65 43 -139 21
-74 64 -215 96 -314 112 -352 197 -622 230 -735 l33 -115 177 -3 c140 -2 176
0 173 10 -3 7 -20 60 -37 118 -18 58 -50 161 -71 230 -21 69 -75 244 -120 390
-170 556 -301 982 -322 1045 l-13 40 -187 3 -187 2 -35 -112z"/>
<path d="M3374 2386 c-3 -8 -4 -225 -2 -483 4 -405 7 -476 21 -527 66 -226
236 -346 488 -346 263 1 424 113 496 345 16 55 18 102 18 540 l0 480 -187 3
-188 2 0 -445 c0 -483 -1 -496 -55 -531 -35 -23 -125 -23 -160 0 -54 35 -55
48 -55 531 l0 445 -185 0 c-150 0 -187 -3 -191 -14z"/>
<path d="M3730 823 c-6 -32 -18 -86 -26 -121 -18 -82 -18 -82 10 -82 15 0 26
7 29 20 3 12 14 20 27 20 13 0 24 -8 27 -20 4 -13 14 -20 30 -20 21 0 24 4 20
23 -3 12 -16 70 -28 130 -22 105 -23 107 -50 107 -26 0 -28 -4 -39 -57z m50
-98 c0 -14 -4 -25 -10 -25 -5 0 -10 11 -10 25 0 14 5 25 10 25 6 0 10 -11 10
-25z"/>
<path d="M3860 750 l0 -130 25 0 c23 0 25 4 25 41 0 41 0 41 23 27 12 -9 23
-27 25 -42 2 -17 9 -26 22 -26 16 0 18 10 18 110 1 135 -8 150 -88 150 l-50 0
0 -130z m96 65 c11 -27 -5 -65 -26 -65 -17 0 -20 7 -20 40 0 34 3 40 20 40 11
0 23 -7 26 -15z"/>
<path d="M4012 858 c2 -15 11 -24 26 -26 21 -3 22 -7 22 -108 l0 -104 25 0 25
0 0 104 c0 101 1 105 23 108 14 2 23 11 25 26 3 21 1 22 -73 22 -74 0 -76 -1
-73 -22z"/>
<path d="M4170 750 l0 -131 58 3 c49 3 57 6 57 23 0 15 -8 21 -32 23 -25 2
-33 8 -33 23 0 12 7 19 20 19 13 0 20 7 20 20 0 13 -7 20 -20 20 -17 0 -20 7
-20 39 0 37 2 40 33 43 24 2 32 8 32 23 0 17 -8 20 -57 23 l-58 3 0 -131z"/>
<path d="M4370 750 l0 -130 61 0 c57 0 60 1 57 23 -2 17 -11 23 -35 25 -25 2
-33 8 -33 23 0 14 7 19 25 19 33 0 35 37 3 42 -18 2 -24 10 -26 40 -3 35 -2
37 30 40 25 2 34 8 36 26 3 21 0 22 -57 22 l-61 0 0 -130z"/>
<path d="M4500 750 l0 -130 25 0 c23 0 25 4 26 48 l1 47 16 -47 c13 -39 20
-48 39 -48 23 0 23 1 23 130 0 121 -1 130 -19 130 -24 0 -33 -24 -25 -66 10
-54 -13 -40 -26 16 -10 43 -15 50 -36 50 l-24 0 0 -130z"/>
<path d="M4720 750 c0 -123 1 -130 20 -130 16 0 20 7 20 33 0 42 7 49 31 34
11 -7 19 -23 19 -39 0 -23 4 -28 25 -28 22 0 25 4 25 38 0 21 -5 43 -11 49 -8
8 -8 17 0 31 18 33 13 87 -10 116 -17 22 -28 26 -70 26 l-49 0 0 -130z m88 43
c-2 -30 -7 -38 -23 -38 -13 0 -21 8 -23 23 -5 34 5 52 28 52 18 0 21 -5 18
-37z"/>
<path d="M4870 750 l0 -131 58 3 c49 3 57 6 57 23 0 15 -8 21 -33 25 -18 3
-33 8 -32 13 0 4 0 12 0 17 0 6 11 10 25 10 18 0 25 5 25 20 0 14 -7 20 -24
20 -28 0 -34 11 -28 51 3 23 10 28 36 31 23 2 31 8 31 23 0 17 -8 20 -57 23
l-58 3 0 -131z"/>
<path d="M5020 860 c-30 -30 -27 -83 6 -109 14 -11 34 -23 44 -26 25 -8 31
-30 14 -52 -14 -17 -15 -17 -30 5 -20 27 -54 30 -54 4 0 -73 106 -87 136 -18
l13 31 1 -37 c0 -34 3 -38 25 -38 l25 0 0 130 0 130 -25 0 c-25 0 -25 -1 -26
-92 0 -75 -3 -88 -11 -65 -6 16 -25 35 -49 47 -43 22 -55 60 -19 60 11 0 20
-4 20 -10 0 -5 12 -10 26 -10 22 0 24 3 19 23 -15 48 -78 64 -115 27z"/>
<path d="M5210 750 l0 -130 25 0 c23 0 25 3 25 53 0 58 14 50 25 -15 l7 -37
55 0 c46 0 56 4 60 20 7 26 53 26 60 -1 3 -13 14 -20 29 -20 13 0 24 3 23 8 0
4 -12 61 -27 127 -26 114 -29 120 -54 123 -25 3 -27 0 -48 -95 -35 -158 -38
-160 -39 -25 l-1 122 -25 0 c-23 0 -25 -3 -25 -52 0 -58 -11 -55 -29 10 -10
35 -16 42 -36 42 l-25 0 0 -130z m236 -36 c-9 -25 -24 -7 -18 22 4 23 6 24 14
10 5 -10 7 -24 4 -32z"/>
</g>
</svg>
